<svg version="1.1" id="Layer_1" xmlns="http://www.w3.org/2000/svg" xmlns:xlink="http://www.w3.org/1999/xlink" x="0px" y="0px"
	 width="100%" viewBox="0 0 360 139" enable-background="new 0 0 360 139" xml:space="preserve">
<path fill="#FFFFFF" opacity="1.000000" stroke="none" 
	d="
M279.000000,140.000000 
	C186.000015,140.000000 93.500046,140.000000 1.000050,140.000000 
	C1.000033,93.666702 1.000033,47.333401 1.000017,1.000074 
	C120.999939,1.000050 240.999878,1.000050 360.999878,1.000025 
	C360.999908,47.333263 360.999908,93.666527 360.999939,139.999893 
	C333.833344,140.000000 306.666656,140.000000 279.000000,140.000000 
M118.500000,17.998547 
	C105.538841,17.998547 92.577675,17.998547 79.785461,17.998547 
	C84.050957,54.870365 84.687302,91.231140 79.720001,127.999390 
	C105.254982,127.999390 130.739517,127.999390 154.920914,127.999390 
	C153.905502,114.973442 152.715622,102.490883 152.050797,89.980415 
	C151.729538,83.934624 154.949539,81.200157 160.836960,80.925865 
	C166.519714,80.661125 171.000183,82.892860 172.463028,88.278275 
	C173.852707,93.394417 174.506699,98.938728 174.223389,104.227234 
	C173.802628,112.081146 172.271042,119.875557 171.165710,128.039169 
	C178.217987,128.039169 185.524292,128.038574 192.830597,128.039291 
	C203.177567,128.040314 203.173920,128.040100 204.995682,117.540726 
	C205.758591,113.143852 206.540695,108.750298 207.314056,104.355240 
	C208.817749,105.675369 209.195999,106.896782 209.584793,108.114830 
	C216.606033,130.111832 241.925095,137.705399 259.843292,123.007690 
	C266.276825,117.730499 269.233734,110.150864 270.887238,102.289299 
	C274.962463,82.913460 275.008179,63.432507 271.009399,44.026276 
	C268.364044,31.188244 262.683105,18.619379 244.674942,16.380127 
	C230.887131,14.665660 216.168732,18.902794 211.123199,34.753555 
	C208.449692,43.152473 207.547394,52.128586 206.028885,60.875965 
	C205.299301,65.078804 204.994980,69.355461 204.398117,74.451996 
	C194.478348,57.924290 180.783539,59.574062 169.720825,69.705513 
	C167.781403,71.481689 165.510101,72.942787 163.245041,74.304916 
	C159.913910,76.308136 156.136444,77.449074 153.256744,74.054909 
	C150.651230,70.983940 151.833237,67.499405 154.046860,64.408707 
	C160.997086,54.704632 171.017258,50.514317 182.362656,50.194214 
	C189.284882,49.998909 196.266174,51.896610 203.764694,52.929104 
	C203.805878,52.010624 203.934647,50.425186 203.938522,48.839443 
	C203.959732,40.175537 203.657028,31.497578 204.069153,22.853220 
	C204.291000,18.200104 202.227249,16.354046 198.218964,16.094105 
	C179.651459,14.889982 166.763275,21.318022 159.120346,39.453270 
	C156.553162,45.544750 155.109955,52.109921 153.153015,58.458584 
	C151.309677,44.927536 151.666595,31.618031 156.663788,17.998699 
	C143.422165,17.998699 131.461075,17.998699 118.500000,17.998547 
M275.216705,89.893181 
	C274.701660,102.533134 274.186584,115.173080 273.674713,127.734940 
	C277.302307,127.734940 281.404388,127.734940 285.777191,127.734940 
	C284.479095,120.936119 282.707275,114.525154 282.165924,108.011917 
	C281.626953,101.527107 279.242065,94.828651 282.807983,86.671989 
	C284.685547,89.693192 286.042694,91.418968 286.911102,93.363060 
	C289.205994,98.500656 290.893524,103.944138 293.533203,108.886444 
	C300.524933,121.977211 310.166748,131.101990 326.494415,130.035812 
	C338.725800,129.237091 341.951172,126.191879 341.951172,114.168549 
	C341.951172,110.004768 341.951172,105.840996 341.951172,101.677216 
	C341.951172,98.282349 341.951172,94.887474 341.951172,91.148048 
	C313.843964,104.168739 287.142975,94.778702 283.223053,74.784843 
	C285.623932,76.364159 287.815582,78.199249 289.729156,80.289009 
	C300.501495,92.053192 322.937775,89.661110 332.422180,80.141769 
	C339.020538,73.519104 341.526276,65.237648 342.639648,56.410233 
	C344.586517,40.974426 339.142639,25.911077 321.935028,20.681911 
	C315.571960,18.748255 308.614227,18.387632 301.894165,18.103527 
	C292.133179,17.690863 282.341766,17.997704 273.184387,17.997704 
	C273.872772,27.602913 274.848083,36.640568 275.094513,45.698055 
	C275.487030,60.124851 275.394104,74.564857 275.216705,89.893181 
M77.219498,96.599731 
	C81.473549,82.589119 81.323677,68.222076 78.598503,54.189686 
	C76.042168,41.026676 69.616577,29.626505 57.268799,22.507854 
	C44.490864,15.141213 30.780613,18.989550 17.908758,18.040503 
	C21.038521,54.988285 21.245777,91.268982 17.735048,128.018982 
	C25.533533,128.018982 33.388603,128.605865 41.103783,127.819771 
	C46.560970,127.263756 52.198757,125.583725 57.104908,123.112823 
	C67.653397,117.800270 73.335617,108.248192 77.219498,96.599731 
z"/>
<path fill="#FFCBCB" opacity="1.000000" stroke="none" 
	d="
M119.000000,17.998623 
	C131.461075,17.998699 143.422165,17.998699 156.663788,17.998699 
	C151.666595,31.618031 151.309677,44.927536 153.153015,58.458584 
	C155.109955,52.109921 156.553162,45.544750 159.120346,39.453270 
	C166.763275,21.318022 179.651459,14.889982 198.218964,16.094105 
	C202.227249,16.354046 204.291000,18.200104 204.069153,22.853220 
	C203.657028,31.497578 203.959732,40.175537 203.938522,48.839443 
	C203.934647,50.425186 203.805878,52.010624 203.764694,52.929104 
	C196.266174,51.896610 189.284882,49.998909 182.362656,50.194214 
	C171.017258,50.514317 160.997086,54.704632 154.046860,64.408707 
	C151.833237,67.499405 150.651230,70.983940 153.256744,74.054909 
	C156.136444,77.449074 159.913910,76.308136 163.245041,74.304916 
	C165.510101,72.942787 167.781403,71.481689 169.720825,69.705513 
	C180.783539,59.574062 194.478348,57.924290 204.398117,74.451996 
	C204.994980,69.355461 205.299301,65.078804 206.028885,60.875965 
	C207.547394,52.128586 208.449692,43.152473 211.123199,34.753555 
	C216.168732,18.902794 230.887131,14.665660 244.674942,16.380127 
	C262.683105,18.619379 268.364044,31.188244 271.009399,44.026276 
	C275.008179,63.432507 274.962463,82.913460 270.887238,102.289299 
	C269.233734,110.150864 266.276825,117.730499 259.843292,123.007690 
	C241.925095,137.705399 216.606033,130.111832 209.584793,108.114830 
	C209.195999,106.896782 208.817749,105.675369 207.314056,104.355240 
	C206.540695,108.750298 205.758591,113.143852 204.995682,117.540726 
	C203.173920,128.040100 203.177567,128.040314 192.830597,128.039291 
	C185.524292,128.038574 178.217987,128.039169 171.165710,128.039169 
	C172.271042,119.875557 173.802628,112.081146 174.223389,104.227234 
	C174.506699,98.938728 173.852707,93.394417 172.463028,88.278275 
	C171.000183,82.892860 166.519714,80.661125 160.836960,80.925865 
	C154.949539,81.200157 151.729538,83.934624 152.050797,89.980415 
	C152.715622,102.490883 153.905502,114.973442 154.920914,127.999390 
	C130.739517,127.999390 105.254982,127.999390 79.720001,127.999390 
	C84.687302,91.231140 84.050957,54.870365 79.785461,17.998547 
	C92.577675,17.998547 105.538841,17.998547 119.000000,17.998623 
M122.602478,70.194351 
	C123.943382,80.401726 119.292831,87.077408 109.201683,89.430641 
	C103.832779,90.682671 98.851578,88.329254 97.241913,83.659271 
	C98.269630,83.197586 99.786781,83.013779 100.264725,82.211159 
	C101.923920,79.424873 104.080963,76.522209 104.430031,73.478203 
	C104.823311,70.048615 101.978981,67.747887 98.442688,67.342224 
	C94.683662,66.911003 91.777046,68.658035 90.905579,72.327606 
	C89.387848,78.718437 88.183327,85.198769 87.269699,91.700905 
	C87.139725,92.625923 89.364777,94.831657 90.518501,94.845100 
	C108.517357,95.054932 126.923576,97.084312 142.978394,83.920113 
	C142.978394,95.890114 142.978394,106.905121 142.978394,117.920128 
	C143.445099,117.994858 143.911789,118.069580 144.378494,118.144310 
	C144.920059,115.189049 145.896011,112.238770 145.930038,109.277679 
	C146.102112,94.294540 146.166656,79.307060 145.999084,64.324112 
	C145.864243,52.266254 145.376083,40.211563 144.941681,28.159176 
	C144.903290,27.094038 144.101807,26.056400 143.654724,25.005991 
	C142.939713,35.299629 142.815842,45.202068 143.006073,55.098473 
	C143.073761,58.619488 141.665482,60.420010 138.376053,60.957886 
	C135.932877,61.357384 133.465073,61.955143 131.018097,61.911549 
	C125.590912,61.814850 119.784470,57.382633 119.016075,53.112026 
	C117.593529,45.205769 120.442894,39.588375 127.172180,37.074577 
	C129.034805,36.378777 131.314743,36.183983 132.692505,34.959583 
	C134.488083,33.363857 136.816818,30.838036 136.615082,28.959549 
	C136.417328,27.118155 133.430862,24.319117 131.498505,24.172073 
	C126.892067,23.821545 121.705658,23.667089 117.605560,25.423012 
	C102.879929,31.729448 98.104881,45.584908 92.519424,60.552368 
	C105.518456,55.960800 116.980774,53.896210 122.602478,70.194351 
M256.395416,52.928722 
	C244.866699,47.742466 233.315964,47.222141 221.874405,53.069546 
	C209.891388,59.193680 206.664169,77.708107 216.011978,87.436646 
	C224.450104,96.218460 234.968597,97.938316 246.658112,96.094078 
	C257.292999,94.416237 266.144257,88.268967 267.623627,79.057945 
	C269.223022,69.099854 268.574036,60.681057 256.395416,52.928722 
z"/>
<path fill="#FFCBCB" opacity="1.000000" stroke="none" 
	d="
M275.361572,89.446228 
	C275.394104,74.564857 275.487030,60.124851 275.094513,45.698055 
	C274.848083,36.640568 273.872772,27.602913 273.184387,17.997704 
	C282.341766,17.997704 292.133179,17.690863 301.894165,18.103527 
	C308.614227,18.387632 315.571960,18.748255 321.935028,20.681911 
	C339.142639,25.911077 344.586517,40.974426 342.639648,56.410233 
	C341.526276,65.237648 339.020538,73.519104 332.422180,80.141769 
	C322.937775,89.661110 300.501495,92.053192 289.729156,80.289009 
	C287.815582,78.199249 285.623932,76.364159 283.223053,74.784843 
	C287.142975,94.778702 313.843964,104.168739 341.951172,91.148048 
	C341.951172,94.887474 341.951172,98.282349 341.951172,101.677216 
	C341.951172,105.840996 341.951172,110.004768 341.951172,114.168549 
	C341.951172,126.191879 338.725800,129.237091 326.494415,130.035812 
	C310.166748,131.101990 300.524933,121.977211 293.533203,108.886444 
	C290.893524,103.944138 289.205994,98.500656 286.911102,93.363060 
	C286.042694,91.418968 284.685547,89.693192 282.807983,86.671989 
	C279.242065,94.828651 281.626953,101.527107 282.165924,108.011917 
	C282.707275,114.525154 284.479095,120.936119 285.777191,127.734940 
	C281.404388,127.734940 277.302307,127.734940 273.674713,127.734940 
	C274.186584,115.173080 274.701660,102.533134 275.361572,89.446228 
M284.400116,41.995995 
	C283.265350,43.461761 280.882538,45.382187 281.220978,46.311279 
	C282.417389,49.595512 283.798950,53.645649 286.443329,55.431084 
	C301.337494,65.487350 317.194794,64.882904 333.295502,58.339352 
	C337.571442,56.601562 337.899475,52.783863 336.657013,49.620720 
	C335.855225,47.579456 332.656403,45.402531 330.402069,45.253830 
	C326.743164,45.012482 322.898987,46.105804 319.272247,47.129112 
	C308.590820,50.142921 298.332184,50.518955 288.848785,43.536209 
	C287.819641,42.778446 286.425690,42.516113 284.400116,41.995995 
z"/>
<path fill="#FFCBCB" opacity="1.000000" stroke="none" 
	d="
M77.115776,96.984802 
	C73.335617,108.248192 67.653397,117.800270 57.104908,123.112823 
	C52.198757,125.583725 46.560970,127.263756 41.103783,127.819771 
	C33.388603,128.605865 25.533533,128.018982 17.735048,128.018982 
	C21.245777,91.268982 21.038521,54.988285 17.908758,18.040503 
	C30.780613,18.989550 44.490864,15.141213 57.268799,22.507854 
	C69.616577,29.626505 76.042168,41.026676 78.598503,54.189686 
	C81.323677,68.222076 81.473549,82.589119 77.115776,96.984802 
M38.846172,92.921738 
	C55.270599,99.497314 76.058800,91.057846 74.857704,67.261307 
	C74.307236,56.355053 72.093384,49.737240 62.357128,47.815304 
	C58.981480,47.148949 55.230080,48.143200 51.685097,48.631542 
	C45.573338,49.473469 39.868874,49.452530 34.959702,44.688736 
	C32.963673,42.751816 30.066643,41.743397 27.579565,40.312511 
	C26.729162,43.233963 25.833048,46.143387 25.059082,49.084949 
	C24.854259,49.863407 24.992119,50.742363 25.029589,51.572601 
	C25.328465,58.195316 25.885803,64.817215 25.891083,71.439743 
	C25.898674,80.962967 29.814013,87.997429 38.846172,92.921738 
z"/>
<path fill="#FFFEFE" opacity="1.000000" stroke="none" 
	d="
M122.446671,69.813248 
	C116.980774,53.896210 105.518456,55.960800 92.519424,60.552368 
	C98.104881,45.584908 102.879929,31.729448 117.605560,25.423012 
	C121.705658,23.667089 126.892067,23.821545 131.498505,24.172073 
	C133.430862,24.319117 136.417328,27.118155 136.615082,28.959549 
	C136.816818,30.838036 134.488083,33.363857 132.692505,34.959583 
	C131.314743,36.183983 129.034805,36.378777 127.172180,37.074577 
	C120.442894,39.588375 117.593529,45.205769 119.016075,53.112026 
	C119.784470,57.382633 125.590912,61.814850 131.018097,61.911549 
	C133.465073,61.955143 135.932877,61.357384 138.376053,60.957886 
	C141.665482,60.420010 143.073761,58.619488 143.006073,55.098473 
	C142.815842,45.202068 142.939713,35.299629 143.654724,25.005991 
	C144.101807,26.056400 144.903290,27.094038 144.941681,28.159176 
	C145.376083,40.211563 145.864243,52.266254 145.999084,64.324112 
	C146.166656,79.307060 146.102112,94.294540 145.930038,109.277679 
	C145.896011,112.238770 144.920059,115.189049 144.378494,118.144310 
	C143.911789,118.069580 143.445099,117.994858 142.978394,117.920128 
	C142.978394,106.905121 142.978394,95.890114 142.978394,83.920113 
	C126.923576,97.084312 108.517357,95.054932 90.518501,94.845100 
	C89.364777,94.831657 87.139725,92.625923 87.269699,91.700905 
	C88.183327,85.198769 89.387848,78.718437 90.905579,72.327606 
	C91.777046,68.658035 94.683662,66.911003 98.442688,67.342224 
	C101.978981,67.747887 104.823311,70.048615 104.430031,73.478203 
	C104.080963,76.522209 101.923920,79.424873 100.264725,82.211159 
	C99.786781,83.013779 98.269630,83.197586 97.241913,83.659271 
	C98.851578,88.329254 103.832779,90.682671 109.201683,89.430641 
	C119.292831,87.077408 123.943382,80.401726 122.446671,69.813248 
z"/>
<path fill="#FFFEFE" opacity="1.000000" stroke="none" 
	d="
M256.693115,53.154121 
	C268.574036,60.681057 269.223022,69.099854 267.623627,79.057945 
	C266.144257,88.268967 257.292999,94.416237 246.658112,96.094078 
	C234.968597,97.938316 224.450104,96.218460 216.011978,87.436646 
	C206.664169,77.708107 209.891388,59.193680 221.874405,53.069546 
	C233.315964,47.222141 244.866699,47.742466 256.693115,53.154121 
M255.667160,72.606606 
	C256.240784,68.783379 256.916290,65.030724 252.942719,62.297737 
	C249.173859,59.705551 245.755432,59.873756 241.899643,62.245739 
	C240.816284,62.912189 238.477081,62.211136 237.034134,61.493481 
	C232.595215,59.285801 228.753906,59.855362 225.394409,63.617416 
	C222.265991,67.120705 221.943436,71.747536 225.332901,75.333046 
	C229.864014,80.126274 234.873672,84.467148 240.259888,89.551750 
	C245.451782,83.954849 250.385590,78.636162 255.667160,72.606606 
z"/>
<path fill="#FFFEFE" opacity="1.000000" stroke="none" 
	d="
M284.800537,42.009987 
	C286.425690,42.516113 287.819641,42.778446 288.848785,43.536209 
	C298.332184,50.518955 308.590820,50.142921 319.272247,47.129112 
	C322.898987,46.105804 326.743164,45.012482 330.402069,45.253830 
	C332.656403,45.402531 335.855225,47.579456 336.657013,49.620720 
	C337.899475,52.783863 337.571442,56.601562 333.295502,58.339352 
	C317.194794,64.882904 301.337494,65.487350 286.443329,55.431084 
	C283.798950,53.645649 282.417389,49.595512 281.220978,46.311279 
	C280.882538,45.382187 283.265350,43.461761 284.800537,42.009987 
z"/>
<path fill="#FFFFFF" opacity="1.000000" stroke="none" 
	d="
M38.503815,92.745094 
	C29.814013,87.997429 25.898674,80.962967 25.891083,71.439743 
	C25.885803,64.817215 25.328465,58.195316 25.029589,51.572601 
	C24.992119,50.742363 24.854259,49.863407 25.059082,49.084949 
	C25.833048,46.143387 26.729162,43.233963 27.579565,40.312511 
	C30.066643,41.743397 32.963673,42.751816 34.959702,44.688736 
	C39.868874,49.452530 45.573338,49.473469 51.685097,48.631542 
	C55.230080,48.143200 58.981480,47.148949 62.357128,47.815304 
	C72.093384,49.737240 74.307236,56.355053 74.857704,67.261307 
	C76.058800,91.057846 55.270599,99.497314 38.503815,92.745094 
z"/>
<path fill="#FFCBCB" opacity="1.000000" stroke="none" 
	d="
M255.493286,72.962036 
	C250.385590,78.636162 245.451782,83.954849 240.259888,89.551750 
	C234.873672,84.467148 229.864014,80.126274 225.332901,75.333046 
	C221.943436,71.747536 222.265991,67.120705 225.394409,63.617416 
	C228.753906,59.855362 232.595215,59.285801 237.034134,61.493481 
	C238.477081,62.211136 240.816284,62.912189 241.899643,62.245739 
	C245.755432,59.873756 249.173859,59.705551 252.942719,62.297737 
	C256.916290,65.030724 256.240784,68.783379 255.493286,72.962036 
z"/>
</svg>